<svg width="297.461" height="97.608" viewBox="0 0 297.461 97.608" xmlns="http://www.w3.org/2000/svg"><g id="svgGroup" stroke-linecap="round" fill-rule="evenodd" font-size="9pt" stroke="#000" stroke-width="0.25mm" fill="#000" style="stroke:#1A1A1A;stroke-width:0.25mm;fill:#1A1A1A"><path d="M 296.739 20.131 A 55.729 55.729 0 0 0 296.558 21.436 A 146.732 146.732 0 0 0 296.21 24.426 A 180.405 180.405 0 0 0 295.899 27.637 Q 295.606 30.957 295.435 34.571 A 1593.502 1593.502 0 0 0 295.127 41.388 A 1449.913 1449.913 0 0 0 295.117 41.602 Q 294.824 49.658 294.776 58.594 A 78.274 78.274 0 0 1 294.165 68.408 A 54.422 54.422 0 0 1 292.69 75.925 A 48.936 48.936 0 0 1 292.212 77.564 A 39.727 39.727 0 0 1 289.137 84.875 A 36.63 36.63 0 0 1 288.745 85.572 Q 286.621 89.258 283.57 91.919 A 22.784 22.784 0 0 1 276.989 95.9 A 25.841 25.841 0 0 1 276.489 96.094 A 23.365 23.365 0 0 1 271.19 97.377 A 30.295 30.295 0 0 1 267.383 97.608 Q 263.331 97.608 260.209 96.893 A 21.411 21.411 0 0 1 259.18 96.631 Q 255.865 95.697 253.644 94.027 A 12.268 12.268 0 0 1 253.443 93.872 A 11.288 11.288 0 0 1 250.653 90.728 A 10.731 10.731 0 0 1 250.073 89.6 A 13.037 13.037 0 0 1 249.013 85.231 A 15.45 15.45 0 0 1 248.975 84.131 Q 248.975 81.153 250 78.736 Q 251.026 76.319 252.686 74.658 A 11.97 11.97 0 0 1 256.446 72.095 A 10.839 10.839 0 0 1 259.89 71.223 A 10.182 10.182 0 0 1 260.694 71.192 A 9.402 9.402 0 0 1 265.707 72.652 A 11.286 11.286 0 0 1 265.869 72.754 A 8.453 8.453 0 0 1 268.383 75.288 Q 269.074 76.343 269.58 77.686 Q 269.287 77.442 268.921 77.368 Q 268.555 77.295 268.164 77.295 Q 267.627 77.295 267.066 77.539 A 3.221 3.221 0 0 0 266.065 78.223 Q 265.625 78.662 265.357 79.224 A 2.738 2.738 0 0 0 265.088 80.42 Q 265.088 81.139 265.371 81.647 A 1.921 1.921 0 0 0 265.381 81.665 A 2.768 2.768 0 0 0 265.716 82.136 A 2.198 2.198 0 0 0 266.089 82.471 A 2.661 2.661 0 0 0 267.017 82.886 A 4.74 4.74 0 0 0 267.511 82.978 A 3.602 3.602 0 0 0 267.969 83.008 Q 268.428 83.008 269.042 82.876 A 9.971 9.971 0 0 0 269.678 82.715 A 4.593 4.593 0 0 0 270.622 82.319 Q 271.038 82.091 271.466 81.765 A 8.767 8.767 0 0 0 271.802 81.494 Q 272.656 80.773 273.51 79.609 A 17.68 17.68 0 0 0 273.999 78.906 Q 275.098 77.246 275.952 74.488 Q 276.617 72.343 277.074 69.476 A 58.582 58.582 0 0 0 277.32 67.774 A 50.521 50.521 0 0 0 277.605 64.882 Q 277.788 62.32 277.788 59.249 A 107.112 107.112 0 0 0 277.783 58.301 A 39.093 39.093 0 0 1 276.814 60.683 Q 275.992 62.515 275.122 63.843 A 16.844 16.844 0 0 1 273.967 65.412 Q 273.106 66.443 272.193 67.139 A 9.099 9.099 0 0 1 270.316 68.254 A 7.736 7.736 0 0 1 268.97 68.701 A 15.284 15.284 0 0 1 266.319 69.068 A 17.795 17.795 0 0 1 265.381 69.092 A 14.97 14.97 0 0 1 262.146 68.724 A 18.628 18.628 0 0 1 260.376 68.238 A 11.549 11.549 0 0 1 256.634 66.156 A 14.196 14.196 0 0 1 255.591 65.21 A 13.392 13.392 0 0 1 253.664 62.733 Q 252.914 61.512 252.295 60.019 A 24.328 24.328 0 0 1 252.002 59.278 A 19.606 19.606 0 0 1 251.099 55.956 Q 250.586 53.203 250.586 49.707 A 39.608 39.608 0 0 1 250.588 49.346 Q 250.592 48.847 250.611 48.609 A 12.913 12.913 0 0 0 250.621 48.459 Q 250.635 48.249 250.635 48.12 Q 250.635 47.949 250.684 47.705 Q 250.724 47.505 250.731 46.992 A 17.103 17.103 0 0 0 250.733 46.753 A 55.686 55.686 0 0 1 250.734 46.361 Q 250.739 45.716 250.757 44.727 Q 250.776 43.717 250.78 42.078 A 398.42 398.42 0 0 0 250.781 41.016 A 189.704 189.704 0 0 0 250.76 38.246 Q 250.739 36.792 250.696 35.181 A 313.339 313.339 0 0 0 250.684 34.717 A 104.278 104.278 0 0 0 250.269 27.832 A 61.873 61.873 0 0 0 249.884 24.616 A 47.071 47.071 0 0 0 249.365 21.704 A 20.187 20.187 0 0 0 248.987 20.193 Q 248.558 18.735 247.994 17.841 A 5.035 5.035 0 0 0 247.852 17.627 Q 251.807 18.311 255.298 18.555 A 106.247 106.247 0 0 0 258.637 18.738 A 79.378 79.378 0 0 0 261.67 18.799 Q 263.574 18.799 265.113 18.726 A 91.979 91.979 0 0 0 266.208 18.667 Q 267.072 18.616 267.774 18.555 A 41.614 41.614 0 0 0 268.982 18.445 A 30.548 30.548 0 0 0 270.069 18.311 Q 269.678 19.141 269.214 21.485 A 68.687 68.687 0 0 0 268.87 23.373 Q 268.585 25.055 268.311 27.1 A 109.614 109.614 0 0 0 267.908 30.524 A 140.356 140.356 0 0 0 267.578 34.253 A 104.101 104.101 0 0 0 267.285 42.09 A 34.061 34.061 0 0 0 267.347 44.2 Q 267.45 45.856 267.725 47.168 A 16.502 16.502 0 0 0 268.099 48.636 Q 268.448 49.771 268.921 50.611 A 7.042 7.042 0 0 0 269.55 51.552 Q 269.947 52.049 270.398 52.392 A 3.991 3.991 0 0 0 270.679 52.588 Q 271.68 53.223 272.852 53.223 Q 274.629 53.223 275.712 51.834 A 4.539 4.539 0 0 0 275.806 51.709 A 11.639 11.639 0 0 0 276.766 50.118 Q 277.176 49.307 277.527 48.35 A 20.463 20.463 0 0 0 277.686 47.901 Q 277.588 44.873 277.344 40.821 A 241.853 241.853 0 0 0 276.882 34.549 A 273.921 273.921 0 0 0 276.685 32.373 A 170.636 170.636 0 0 0 275.611 23.511 A 90.034 90.034 0 0 0 274.663 18.165 A 74.418 74.418 0 0 0 273.975 15.186 Q 275.134 15.597 276.636 15.951 A 38.926 38.926 0 0 0 277.588 16.162 Q 278.971 16.461 280.812 16.689 A 60.308 60.308 0 0 0 281.983 16.822 A 45.009 45.009 0 0 0 284.054 16.985 Q 285.889 17.09 288.086 17.09 A 70.218 70.218 0 0 0 292.213 16.961 Q 294.377 16.834 296.772 16.579 A 116.951 116.951 0 0 0 297.461 16.504 Q 297.05 18.074 296.739 20.131 Z M 50.284 19.563 A 11.388 11.388 0 0 0 50.586 16.895 A 14.135 14.135 0 0 0 50.411 14.687 A 16.393 16.393 0 0 0 49.341 10.962 A 13.559 13.559 0 0 0 47.902 8.356 A 16.362 16.362 0 0 0 45.337 5.518 A 15.524 15.524 0 0 0 44.825 5.084 Q 43.405 3.933 41.584 2.997 A 26.489 26.489 0 0 0 38.135 1.538 A 22.967 22.967 0 0 0 36.372 1.008 Q 34.354 0.487 31.994 0.235 A 44.396 44.396 0 0 0 27.295 0 A 39.929 39.929 0 0 0 22.003 0.337 A 30.077 30.077 0 0 0 15.967 1.758 A 29.398 29.398 0 0 0 12.864 3.051 A 23.469 23.469 0 0 0 7.544 6.568 A 20.532 20.532 0 0 0 2.295 13.721 Q 0.488 17.822 0.488 22.51 A 34.266 34.266 0 0 0 0.509 23.721 Q 0.563 25.232 0.753 26.554 A 17.991 17.991 0 0 0 1.319 29.175 A 16.873 16.873 0 0 0 1.781 30.51 A 14.098 14.098 0 0 0 3.736 33.985 A 16.069 16.069 0 0 0 4.143 34.49 A 17.241 17.241 0 0 0 7.593 37.598 A 49.904 49.904 0 0 0 9.687 38.96 A 63.137 63.137 0 0 0 12.696 40.698 A 221.9 221.9 0 0 0 15.662 42.279 A 281.547 281.547 0 0 0 18.897 43.946 A 88.706 88.706 0 0 1 22.376 45.813 A 114.235 114.235 0 0 1 26.074 47.998 Q 28.076 49.365 29.126 51.123 A 8.221 8.221 0 0 1 29.766 52.435 A 6.075 6.075 0 0 1 30.176 54.59 A 4.448 4.448 0 0 1 29.834 56.299 Q 29.492 57.129 28.858 57.813 Q 28.223 58.496 27.393 58.911 Q 26.563 59.326 25.586 59.326 Q 24.707 59.326 23.902 59.033 A 5.013 5.013 0 0 1 23.889 59.029 A 4.388 4.388 0 0 1 22.486 58.203 A 4.62 4.62 0 0 1 21.485 56.958 A 3.132 3.132 0 0 1 21.094 55.42 A 5.496 5.496 0 0 1 21.117 54.906 Q 21.161 54.437 21.289 54.053 A 2.452 2.452 0 0 1 21.875 53.076 A 2.565 2.565 0 0 1 23.066 52.404 A 3.596 3.596 0 0 1 23.975 52.295 A 4.611 4.611 0 0 1 24.322 52.309 Q 24.976 52.358 25.781 52.588 Q 24.951 51.026 23.56 49.805 A 14.299 14.299 0 0 0 20.435 47.73 A 16.409 16.409 0 0 0 16.724 46.436 A 18.514 18.514 0 0 0 12.696 45.996 A 18.469 18.469 0 0 0 11.879 46.014 A 16.044 16.044 0 0 0 7.739 46.729 A 13.009 13.009 0 0 0 7.452 46.823 A 11.334 11.334 0 0 0 3.687 48.95 A 9.715 9.715 0 0 0 2.772 49.848 A 10.514 10.514 0 0 0 0.977 52.686 A 11.355 11.355 0 0 0 0.214 55.282 A 15.377 15.377 0 0 0 0 57.91 Q 0 61.963 2.027 65.454 Q 4.053 68.946 7.471 71.533 A 24.577 24.577 0 0 0 10.192 73.32 A 28.777 28.777 0 0 0 15.43 75.611 A 30.515 30.515 0 0 0 25 77.1 A 31.347 31.347 0 0 0 35.669 75.269 A 31.816 31.816 0 0 0 35.987 75.153 A 28.129 28.129 0 0 0 44.654 70.093 A 25.2 25.2 0 0 0 50.855 62.036 A 21.855 21.855 0 0 0 52.175 58.679 A 24.394 24.394 0 0 0 53.174 51.612 Q 53.174 49.61 52.912 47.858 A 17.868 17.868 0 0 0 52.124 44.605 A 20.378 20.378 0 0 0 51.554 43.151 A 17.129 17.129 0 0 0 49.292 39.356 A 19.192 19.192 0 0 0 45.142 35.474 Q 42.774 33.838 40.088 32.569 Q 37.403 31.299 34.546 30.225 Q 31.69 29.151 29.004 28.028 Q 27.295 27.344 25.855 26.319 A 14.429 14.429 0 0 1 25.501 26.058 A 12.779 12.779 0 0 1 23.364 24.024 Q 22.315 22.754 21.704 21.314 Q 21.094 19.873 21.094 18.408 A 7.289 7.289 0 0 1 21.19 17.201 A 5.348 5.348 0 0 1 21.631 15.772 A 6.722 6.722 0 0 1 21.816 15.413 A 5.705 5.705 0 0 1 23.023 13.892 Q 23.877 13.135 24.903 12.769 A 6.812 6.812 0 0 1 25.428 12.604 A 5.681 5.681 0 0 1 26.904 12.403 Q 27.745 12.403 28.422 12.523 A 5.227 5.227 0 0 1 29.273 12.744 A 6.57 6.57 0 0 1 29.522 12.84 Q 29.886 12.987 30.186 13.163 A 3.533 3.533 0 0 1 30.786 13.599 A 3.465 3.465 0 0 1 31.193 14.036 A 2.537 2.537 0 0 1 31.568 14.697 A 3.732 3.732 0 0 1 31.701 15.13 A 2.932 2.932 0 0 1 31.787 15.821 A 2.366 2.366 0 0 1 31.638 16.651 A 2.816 2.816 0 0 1 31.226 17.383 Q 30.664 18.115 29.297 18.115 A 2.718 2.718 0 0 1 28.899 18.084 Q 28.491 18.023 27.979 17.847 Q 27.454 17.666 27.017 17.166 A 3.929 3.929 0 0 1 26.612 16.602 Q 26.612 17.139 26.734 18.164 Q 26.798 18.709 26.946 19.309 A 13.288 13.288 0 0 0 27.271 20.41 A 11.363 11.363 0 0 0 27.708 21.502 A 14.433 14.433 0 0 0 28.467 22.925 A 7.866 7.866 0 0 0 29.194 23.936 A 9.387 9.387 0 0 0 30.591 25.269 A 9.863 9.863 0 0 0 32.197 26.281 A 13.494 13.494 0 0 0 33.911 27.002 A 10.246 10.246 0 0 0 34.555 27.201 Q 35.473 27.452 36.544 27.573 A 18.974 18.974 0 0 0 38.672 27.686 A 15.767 15.767 0 0 0 39.765 27.648 A 13.386 13.386 0 0 0 43.384 26.905 A 13.212 13.212 0 0 0 43.918 26.699 A 11.446 11.446 0 0 0 47.168 24.707 Q 48.779 23.291 49.683 21.314 A 9.604 9.604 0 0 0 50.284 19.563 Z M 201.026 16.016 Q 198.535 23.047 196.948 30.078 A 211.13 211.13 0 0 0 194.263 44.19 A 324.307 324.307 0 0 0 192.383 58.35 A 1047.861 1047.861 0 0 1 190.723 72.51 Q 188.574 72.363 185.913 72.29 Q 183.252 72.217 180.322 72.217 A 245.435 245.435 0 0 0 175.464 72.266 A 149.354 149.354 0 0 0 170.654 72.437 A 161.102 161.102 0 0 0 168.378 72.571 A 134.645 134.645 0 0 0 166.236 72.73 Q 164.193 72.898 162.553 73.09 A 76.291 76.291 0 0 0 162.5 73.096 Q 161.572 65.918 160.694 58.814 A 260.672 260.672 0 0 0 158.545 44.654 Q 157.276 37.598 155.42 30.591 A 106.82 106.82 0 0 0 150.635 16.602 A 77.877 77.877 0 0 0 160.205 17.188 Q 166.944 17.188 173.633 16.016 A 95.876 95.876 0 0 0 173.291 21.24 Q 173.194 23.828 173.194 26.416 A 121.11 121.11 0 0 0 173.999 40.454 A 92.234 92.234 0 0 0 176.612 54.004 A 129.62 129.62 0 0 0 178.98 41.358 Q 179.834 35.059 179.834 28.711 Q 179.834 25.488 179.59 22.339 Q 179.346 19.19 178.906 16.016 A 101.233 101.233 0 0 0 189.795 16.602 A 110.039 110.039 0 0 0 201.026 16.016 Z M 130.811 28.321 Q 129.297 28.321 128.076 29.175 Q 126.856 30.03 125.904 31.568 A 14.598 14.598 0 0 0 125.012 33.258 Q 124.623 34.122 124.288 35.12 A 23.95 23.95 0 0 0 124.243 35.254 A 29.75 29.75 0 0 0 123.497 37.96 A 37.208 37.208 0 0 0 123.096 39.99 A 182.856 182.856 0 0 0 123.291 48.389 Q 123.487 52.637 123.926 56.787 Q 124.365 60.938 125.073 64.893 A 77.3 77.3 0 0 0 126.314 70.606 A 68.595 68.595 0 0 0 126.807 72.412 Q 126.135 72.37 125.284 72.292 A 79.178 79.178 0 0 1 125 72.266 A 95.417 95.417 0 0 0 124.29 72.229 Q 123.654 72.199 122.876 72.168 Q 121.631 72.119 120.02 72.119 Q 116.992 72.119 113.013 72.388 A 92.316 92.316 0 0 0 108.82 72.772 A 125.246 125.246 0 0 0 104.199 73.389 Q 104.602 71.509 104.936 69.052 A 97.728 97.728 0 0 0 105.225 66.699 Q 105.664 62.744 105.957 58.106 Q 106.25 53.467 106.421 48.413 A 295.465 295.465 0 0 0 106.592 38.428 A 258.564 258.564 0 0 0 106.494 31.25 A 270.547 270.547 0 0 0 106.378 27.832 A 227.133 227.133 0 0 0 106.226 24.61 Q 106.055 21.485 105.762 18.848 A 67.65 67.65 0 0 0 105.528 16.973 Q 105.322 15.497 105.078 14.307 A 96.438 96.438 0 0 0 108.856 14.887 A 70.555 70.555 0 0 0 112.28 15.259 Q 115.528 15.528 118.115 15.528 A 64.193 64.193 0 0 0 119.493 15.514 Q 120.122 15.5 120.68 15.473 A 36.032 36.032 0 0 0 121.045 15.454 A 62.875 62.875 0 0 0 121.949 15.396 Q 122.663 15.344 123.242 15.283 A 67.275 67.275 0 0 0 124.219 15.137 A 49.417 49.417 0 0 0 125.098 14.99 A 35.167 35.167 0 0 0 124.585 17.566 A 45.785 45.785 0 0 0 124.219 20.41 A 19.612 19.612 0 0 1 126.701 17.881 A 14.884 14.884 0 0 1 129.761 15.869 A 16.132 16.132 0 0 1 132.229 14.894 Q 133.67 14.466 135.018 14.412 A 9.642 9.642 0 0 1 135.401 14.405 A 20.213 20.213 0 0 1 138.744 14.666 Q 140.597 14.977 142.131 15.658 A 11.742 11.742 0 0 1 142.822 15.991 A 14.399 14.399 0 0 1 146.396 18.6 A 13.09 13.09 0 0 1 147.705 20.142 A 16.822 16.822 0 0 1 150.269 25.52 A 19.248 19.248 0 0 1 150.391 25.977 A 26.898 26.898 0 0 1 151.221 32.617 A 22.359 22.359 0 0 1 150.293 39.014 A 19.185 19.185 0 0 1 148.337 43.494 A 17.473 17.473 0 0 1 147.608 44.605 A 13.906 13.906 0 0 1 143.262 48.584 A 11.143 11.143 0 0 1 138.309 50.068 A 13.552 13.552 0 0 1 137.403 50.098 A 14.229 14.229 0 0 1 135.203 49.937 Q 133.981 49.745 132.957 49.327 A 8.314 8.314 0 0 1 132.495 49.121 A 10.552 10.552 0 0 1 130.239 47.672 A 9.231 9.231 0 0 1 129.151 46.582 Q 127.832 45.02 127.222 43.14 A 12.194 12.194 0 0 1 126.624 39.927 A 11.323 11.323 0 0 1 126.612 39.405 Q 126.612 37.451 127.173 35.596 A 11.563 11.563 0 0 1 128.809 32.227 A 6.517 6.517 0 0 0 129.064 32.905 Q 129.21 33.232 129.378 33.491 A 2.876 2.876 0 0 0 129.663 33.863 A 4.192 4.192 0 0 0 130.084 34.266 Q 130.331 34.471 130.584 34.605 A 2.41 2.41 0 0 0 130.713 34.668 A 3.342 3.342 0 0 0 131.983 35.01 A 6.292 6.292 0 0 0 132.976 34.937 Q 133.508 34.852 133.932 34.667 A 2.712 2.712 0 0 0 134.693 34.18 A 2.956 2.956 0 0 0 135.29 33.435 A 2.459 2.459 0 0 0 135.596 32.227 Q 135.596 31.765 135.452 31.195 A 6.465 6.465 0 0 0 135.401 31.006 A 3.208 3.208 0 0 0 134.859 29.941 A 3.83 3.83 0 0 0 134.693 29.737 A 3.344 3.344 0 0 0 134.099 29.209 Q 133.731 28.95 133.252 28.736 Q 132.572 28.431 131.576 28.35 A 9.437 9.437 0 0 0 130.811 28.321 Z M 100.08 20.626 A 101.238 101.238 0 0 0 99.976 21.436 A 126.227 126.227 0 0 0 99.634 24.481 A 156.25 156.25 0 0 0 99.341 27.759 A 175.499 175.499 0 0 0 99.007 33.014 A 197.855 197.855 0 0 0 98.926 34.839 A 185.07 185.07 0 0 0 98.779 42.188 A 59.264 59.264 0 0 0 98.828 44.605 A 57.598 57.598 0 0 1 98.876 46.642 A 52.305 52.305 0 0 1 98.877 46.924 Q 98.877 49.158 98.643 51.945 A 85.541 85.541 0 0 1 98.609 52.344 A 38.226 38.226 0 0 1 97.727 57.735 A 42.51 42.51 0 0 1 97.534 58.521 A 35.07 35.07 0 0 1 95.313 64.697 Q 93.897 67.725 91.577 70.069 A 17.279 17.279 0 0 1 87.197 73.256 A 20.439 20.439 0 0 1 85.938 73.853 A 16.74 16.74 0 0 1 82.096 74.971 Q 80.223 75.293 78.076 75.293 A 25.352 25.352 0 0 1 74.613 75.068 A 18.454 18.454 0 0 1 71.167 74.268 A 18.208 18.208 0 0 1 67.719 72.69 A 15.573 15.573 0 0 1 65.943 71.46 Q 63.721 69.678 62.207 67.237 Q 60.694 64.795 59.766 61.988 Q 58.838 59.18 58.423 56.104 A 45.604 45.604 0 0 1 58.008 50 A 35.079 35.079 0 0 1 58.009 49.745 Q 58.012 49.276 58.029 49.121 A 0.771 0.771 0 0 1 58.032 49.097 Q 58.052 48.96 58.056 48.902 A 0.379 0.379 0 0 0 58.057 48.877 A 0.164 0.164 0 0 1 58.06 48.849 Q 58.069 48.798 58.106 48.706 Q 58.154 48.586 58.154 47.966 A 16.55 16.55 0 0 0 58.154 47.949 A 49.249 49.249 0 0 1 58.156 47.586 Q 58.161 46.973 58.179 45.947 A 112.517 112.517 0 0 0 58.19 45.194 Q 58.199 44.344 58.202 43.196 A 431.284 431.284 0 0 0 58.203 42.09 A 209.532 209.532 0 0 0 58.182 39.177 Q 58.161 37.65 58.118 35.96 A 343.307 343.307 0 0 0 58.106 35.474 A 115.04 115.04 0 0 0 57.691 28.247 A 67.571 67.571 0 0 0 57.306 24.872 A 50.83 50.83 0 0 0 56.787 21.826 A 21.525 21.525 0 0 0 56.431 20.329 Q 55.94 18.575 55.274 17.627 Q 59.229 18.311 62.72 18.555 A 106.247 106.247 0 0 0 66.059 18.738 A 79.378 79.378 0 0 0 69.092 18.799 Q 70.996 18.799 72.534 18.726 A 91.979 91.979 0 0 0 73.63 18.667 Q 74.494 18.616 75.196 18.555 A 41.614 41.614 0 0 0 76.404 18.445 A 30.548 30.548 0 0 0 77.49 18.311 A 171.901 171.901 0 0 0 76.591 23.081 Q 76.09 25.945 75.611 29.175 Q 74.707 35.254 74.707 43.115 A 41.865 41.865 0 0 0 74.803 45.908 A 47.339 47.339 0 0 0 74.878 46.875 A 22.967 22.967 0 0 0 75.155 48.972 A 18.433 18.433 0 0 0 75.488 50.464 A 10.514 10.514 0 0 0 75.898 51.696 Q 76.235 52.526 76.685 53.15 A 2.802 2.802 0 0 0 77.282 53.769 A 2.174 2.174 0 0 0 78.613 54.199 A 3.525 3.525 0 0 0 79.613 54.065 A 2.648 2.648 0 0 0 80.908 53.223 Q 81.738 52.246 82.154 50.659 A 14.656 14.656 0 0 0 82.512 48.758 A 19.105 19.105 0 0 0 82.642 47.119 A 104.231 104.231 0 0 0 82.715 43.213 A 243.734 243.734 0 0 0 82.593 37.073 A 198.106 198.106 0 0 0 82.324 31.348 A 162.918 162.918 0 0 0 81.958 26.612 A 106.776 106.776 0 0 0 81.655 23.726 A 89.945 89.945 0 0 0 81.446 22.095 Q 81.153 19.971 80.762 18.286 A 19.456 19.456 0 0 0 80.508 17.303 Q 80.365 16.804 80.21 16.387 A 7.748 7.748 0 0 0 79.883 15.625 A 85.409 85.409 0 0 0 83.692 16.199 A 65.943 65.943 0 0 0 87.207 16.553 Q 90.576 16.797 93.213 16.797 A 72.575 72.575 0 0 0 94.781 16.781 Q 95.518 16.765 96.176 16.733 A 43.154 43.154 0 0 0 96.363 16.724 A 70.763 70.763 0 0 0 97.348 16.665 Q 98.12 16.614 98.731 16.553 A 32.11 32.11 0 0 0 99.7 16.458 Q 100.14 16.408 100.528 16.349 A 17.604 17.604 0 0 0 100.781 16.309 Q 100.404 18.197 100.08 20.626 Z M 243.726 34.326 A 24.463 24.463 0 0 0 244.776 27.197 A 18.544 18.544 0 0 0 244.765 26.575 Q 244.721 25.246 244.483 24.091 A 10.313 10.313 0 0 0 243.604 21.509 A 12.141 12.141 0 0 0 243.53 21.365 A 10.503 10.503 0 0 0 240.454 17.725 A 11.729 11.729 0 0 0 239.088 16.853 A 13.21 13.21 0 0 0 235.864 15.625 Q 233.252 14.99 230.42 14.99 A 27.493 27.493 0 0 0 219.507 17.212 Q 214.307 19.434 210.352 23.706 A 28.261 28.261 0 0 0 206.998 28.157 A 35.133 35.133 0 0 0 204.053 34.278 A 36.07 36.07 0 0 0 202.224 41.494 A 48.54 48.54 0 0 0 201.709 48.731 Q 201.709 52.96 202.304 56.479 A 29.814 29.814 0 0 0 203.589 61.524 A 28.581 28.581 0 0 0 205.496 65.794 A 20.737 20.737 0 0 0 208.618 70.093 A 19.108 19.108 0 0 0 215.845 74.903 A 24.147 24.147 0 0 0 224.317 76.416 A 26.042 26.042 0 0 0 225.978 76.364 A 22.197 22.197 0 0 0 232.642 74.927 Q 236.475 73.438 239.258 70.752 Q 242.041 68.067 243.628 64.38 A 18.776 18.776 0 0 0 244.532 61.762 A 21.248 21.248 0 0 0 245.215 56.299 A 24.73 24.73 0 0 0 245.117 54.135 A 31.429 31.429 0 0 0 244.702 51.148 A 27.311 27.311 0 0 0 244 48.285 A 36.765 36.765 0 0 0 242.92 45.215 A 12.143 12.143 0 0 1 242.737 46.772 A 8.914 8.914 0 0 1 242.31 48.316 A 10.578 10.578 0 0 1 242.107 48.809 A 9.196 9.196 0 0 1 240.991 50.708 A 10.959 10.959 0 0 1 240.787 50.966 A 9.74 9.74 0 0 1 239.209 52.515 A 12.255 12.255 0 0 1 238.841 52.789 A 10.713 10.713 0 0 1 237.207 53.76 A 14.152 14.152 0 0 1 235.117 54.62 A 17.053 17.053 0 0 1 231.787 55.322 L 231.055 55.322 Q 230.322 55.322 229.248 55.127 Q 228.174 54.932 226.904 54.444 A 7.42 7.42 0 0 1 226.125 54.091 A 8.398 8.398 0 0 1 224.512 52.979 Q 223.389 52.002 222.583 50.391 A 7.716 7.716 0 0 1 222.328 49.823 Q 222.024 49.069 221.835 48.169 A 14.301 14.301 0 0 1 221.582 46.387 A 52.034 52.034 0 0 0 224.625 46.301 Q 226.974 46.164 228.991 45.804 A 24.131 24.131 0 0 0 232.935 44.776 Q 237.403 43.164 240.039 40.479 Q 242.676 37.793 243.726 34.326 Z M 221.387 38.33 A 10.307 10.307 0 0 0 222.619 38.207 Q 223.236 38.109 223.922 37.939 A 19.955 19.955 0 0 0 224.561 37.769 A 15.066 15.066 0 0 0 227.979 36.328 Q 229.59 35.401 230.689 34.033 Q 231.787 32.666 231.787 30.908 A 2.614 2.614 0 0 0 231.653 30.054 A 2.199 2.199 0 0 0 231.006 29.102 A 2.718 2.718 0 0 0 229.656 28.472 A 3.774 3.774 0 0 0 229.004 28.418 A 5.058 5.058 0 0 0 225.952 29.395 Q 224.61 30.371 223.657 31.836 Q 222.705 33.301 222.119 35.059 A 17.391 17.391 0 0 0 221.643 36.756 A 12.909 12.909 0 0 0 221.387 38.33 Z" vector-effect="non-scaling-stroke"/></g></svg>