<svg width="158.2" height="73.801" viewBox="0 0 158.2 73.801" xmlns="http://www.w3.org/2000/svg"><g id="svgGroup" stroke-linecap="round" fill-rule="evenodd" font-size="9pt" stroke="#000" stroke-width="0.25mm" fill="#000" style="stroke:#1A1A1A;stroke-width:0.25mm;fill:#1A1A1A"><path d="M 138.2 72.8 L 130.4 36.4 L 130.4 35.1 A 5.972 5.972 0 0 0 133.238 32.137 Q 134.284 29.94 134.388 26.4 A 27.178 27.178 0 0 0 134.4 25.6 A 42.289 42.289 0 0 0 134.337 23.198 Q 134.213 21.031 133.847 19.575 A 9.062 9.062 0 0 0 133.6 18.75 Q 132.8 16.5 130.85 15.7 Q 128.983 14.934 125.694 14.901 A 29.77 29.77 0 0 0 125.4 14.9 L 105.9 14.9 L 100.4 0.8 L 128.8 0.8 Q 135.538 0.8 140.575 2.119 A 28.375 28.375 0 0 1 143.5 3.05 Q 149.4 5.3 152.35 10.55 Q 154.514 14.4 155.09 20.322 A 47.306 47.306 0 0 1 155.3 24.9 A 38.517 38.517 0 0 1 154.851 30.984 Q 154.333 34.212 153.22 36.804 A 17.335 17.335 0 0 1 150.7 41 L 158.2 72.8 L 138.2 72.8 Z M 21 34.7 L 0 34.7 A 86.839 86.839 0 0 1 0.495 27.002 Q 0.923 23.194 1.7 20.013 A 34.011 34.011 0 0 1 3.75 13.95 A 24.835 24.835 0 0 1 7.353 8.176 A 19.587 19.587 0 0 1 13.7 3.2 Q 19.337 0.425 27.305 0.056 A 54.016 54.016 0 0 1 29.8 0 A 70.665 70.665 0 0 1 32.782 0.067 Q 34.816 0.153 37.15 0.35 Q 41.3 0.7 45.2 1.6 L 45.2 28 L 33.1 28 L 31.5 15.9 A 17.784 17.784 0 0 0 29.207 16.041 A 13.058 13.058 0 0 0 27.05 16.5 A 5.947 5.947 0 0 0 24.233 18.389 A 7.652 7.652 0 0 0 23.8 18.95 A 8.431 8.431 0 0 0 22.994 20.413 Q 22.265 22.077 21.8 24.6 A 37.614 37.614 0 0 0 21.421 27.219 Q 21.069 30.369 21 34.7 Z M 125.4 19.9 L 125.4 72.8 L 105.9 72.8 L 105.9 19.9 L 125.4 19.9 Z M 0 39.7 L 21 39.7 Q 21.41 48.062 24.038 52.157 A 9.769 9.769 0 0 0 25.3 53.75 A 11.932 11.932 0 0 0 30.139 56.667 Q 32.959 57.6 36.7 57.6 A 34.791 34.791 0 0 0 40.468 57.402 A 31.028 31.028 0 0 0 41.3 57.3 Q 43.5 57 46 56.6 L 46 72.4 A 35.498 35.498 0 0 1 43.446 72.911 Q 42.189 73.118 40.766 73.277 A 68.236 68.236 0 0 1 39 73.45 Q 34.9 73.8 31.7 73.8 Q 15.2 73.8 7.85 65.2 Q 0.5 56.6 0 39.7 Z M 64.1 72.8 L 64.1 21.8 L 83.7 21.8 L 83.7 72.8 L 64.1 72.8 Z M 96.9 16.8 L 49.5 16.8 L 49.5 0.8 L 99.9 0.8 L 96.9 16.8 Z" vector-effect="non-scaling-stroke"/></g></svg>