<svg width="346.095" height="89.941" viewBox="0 0 346.095 89.941" xmlns="http://www.w3.org/2000/svg"><g id="svgGroup" stroke-linecap="round" fill-rule="evenodd" font-size="9pt" stroke="#1A1A1A" stroke-width="0.25mm" fill="#1A1A1A" style="stroke:#1A1A1A;stroke-width:0.25mm;fill:#1A1A1A"><path d="M 32.619 72.266 L 32.619 68.262 Q 41.854 67.313 45.31 55.539 A 42.65 42.65 0 0 0 46.388 50.83 A 60.631 60.631 0 0 0 47.043 45.948 Q 47.302 43.243 47.401 40.138 A 125.623 125.623 0 0 0 47.462 36.133 A 103.564 103.564 0 0 0 47.048 26.462 Q 45.569 10.771 38.809 6.259 A 10.776 10.776 0 0 0 38.722 6.201 Q 35.988 4.443 32.619 4.053 L 32.619 0 A 27.501 27.501 0 0 1 52.291 10.016 A 35.803 35.803 0 0 1 53.322 11.279 Q 61.281 21.484 61.281 36.133 A 44.88 44.88 0 0 1 59.647 48.496 A 36.321 36.321 0 0 1 53.322 60.986 A 30.127 30.127 0 0 1 44.816 68.598 A 27.565 27.565 0 0 1 32.619 72.266 Z M 28.566 68.262 L 28.566 72.314 A 27.488 27.488 0 0 1 8.948 62.255 A 36.47 36.47 0 0 1 7.912 60.986 A 37.218 37.218 0 0 1 0.436 42.773 A 49.253 49.253 0 0 1 0.001 36.133 A 44.816 44.816 0 0 1 1.626 23.814 A 36.158 36.158 0 0 1 7.912 11.377 A 30.704 30.704 0 0 1 16.036 3.968 A 27.248 27.248 0 0 1 28.566 0.049 L 28.566 4.053 A 12.78 12.78 0 0 0 19.122 9.485 A 17.823 17.823 0 0 0 17.775 11.67 A 28.683 28.683 0 0 0 15.638 17.458 Q 13.722 24.753 13.722 36.133 A 104.489 104.489 0 0 0 14.133 45.802 Q 15.606 61.573 22.364 66.097 A 10.743 10.743 0 0 0 22.462 66.162 A 13.67 13.67 0 0 0 28.566 68.262 Z M 83.302 22.363 L 83.644 28.467 L 83.644 82.227 Q 83.742 84.57 85.792 85.596 A 17.764 17.764 0 0 0 87.089 86.116 A 21.806 21.806 0 0 0 87.941 86.401 A 18.856 18.856 0 0 1 89.444 86.945 A 22.923 22.923 0 0 1 90.382 87.354 L 90.382 89.941 L 67.091 89.941 L 67.091 87.354 A 11.783 11.783 0 0 1 69.215 86.401 A 16.84 16.84 0 0 0 70.381 85.966 A 13.154 13.154 0 0 0 71.193 85.596 A 3.991 3.991 0 0 0 72.393 84.642 Q 73.195 83.679 73.195 82.227 L 73.195 30.469 A 5.293 5.293 0 0 0 73.032 29.107 A 3.308 3.308 0 0 0 71.242 26.904 A 7.38 7.38 0 0 0 70.238 26.469 A 9.781 9.781 0 0 0 69.313 26.196 A 9.369 9.369 0 0 1 67.791 25.677 A 11.178 11.178 0 0 1 67.091 25.342 L 67.091 22.363 L 83.302 22.363 Z M 87.697 70.703 L 87.746 66.357 A 9.493 9.493 0 0 0 90.562 67.671 A 8.487 8.487 0 0 0 92.799 67.969 A 9.586 9.586 0 0 0 95.271 67.662 A 7.807 7.807 0 0 0 97.438 66.724 A 8.577 8.577 0 0 0 99.47 64.913 Q 100.185 64.05 100.783 62.939 Q 103.46 57.909 103.606 48.385 A 72.697 72.697 0 0 0 103.615 47.266 A 66.858 66.858 0 0 0 103.335 40.884 Q 102.738 34.691 100.866 31.162 A 8.992 8.992 0 0 0 97.56 27.49 Q 95.921 26.56 94.423 26.474 A 5.303 5.303 0 0 0 94.118 26.465 A 9.448 9.448 0 0 0 93.162 26.51 Q 92.184 26.61 91.53 26.929 Q 90.578 27.393 89.845 28.076 A 6.843 6.843 0 0 0 89.32 28.64 Q 88.778 29.283 88.118 30.294 A 32.754 32.754 0 0 0 87.697 30.957 L 87.697 24.072 Q 91.31 21.631 95.729 21.631 A 17.023 17.023 0 0 1 100.919 22.403 A 15.314 15.314 0 0 1 103.712 23.608 A 19.263 19.263 0 0 1 109.62 28.731 A 22.151 22.151 0 0 1 109.865 29.053 A 26.579 26.579 0 0 1 114.799 40.628 A 36.212 36.212 0 0 1 115.333 46.973 A 38.371 38.371 0 0 1 114.627 54.558 Q 113.691 59.198 111.514 62.81 A 21.785 21.785 0 0 1 109.621 65.479 A 17.902 17.902 0 0 1 96.622 72.119 A 22.55 22.55 0 0 1 95.119 72.168 A 20.508 20.508 0 0 1 91.28 71.824 A 15.74 15.74 0 0 1 87.697 70.703 Z M 174.318 30.029 L 174.318 24.707 A 16.474 16.474 0 0 1 182.734 21.699 A 20.759 20.759 0 0 1 184.425 21.631 A 21.031 21.031 0 0 1 189.115 22.125 A 14.378 14.378 0 0 1 195.314 25.146 A 11.944 11.944 0 0 1 199.296 32.315 A 17.673 17.673 0 0 1 199.562 35.449 L 199.562 61.133 A 17.372 17.372 0 0 0 199.641 62.858 Q 199.813 64.582 200.367 65.534 A 2.283 2.283 0 0 0 201.466 66.553 A 6.979 6.979 0 0 0 202.4 66.864 A 8.102 8.102 0 0 0 202.736 66.943 A 11.181 11.181 0 0 1 203.913 67.319 Q 204.493 67.543 204.959 67.813 A 5.123 5.123 0 0 1 205.617 68.262 L 205.617 70.85 L 186.72 70.85 L 186.72 67.529 A 2.08 2.08 0 0 1 187.095 66.349 A 3.126 3.126 0 0 1 187.55 65.82 Q 188.342 65.075 188.734 64.529 A 4.152 4.152 0 0 0 188.771 64.478 A 1.882 1.882 0 0 0 189.017 63.961 Q 189.162 63.496 189.162 62.842 L 189.162 34.961 A 12.831 12.831 0 0 0 188.819 31.852 Q 187.809 27.819 183.817 27.041 A 10.872 10.872 0 0 0 181.74 26.855 A 10.087 10.087 0 0 0 175.77 28.832 A 13.818 13.818 0 0 0 174.318 30.029 Z M 314.796 30.029 L 314.796 24.707 A 16.474 16.474 0 0 1 323.212 21.699 A 20.759 20.759 0 0 1 324.904 21.631 A 21.031 21.031 0 0 1 329.594 22.125 A 14.378 14.378 0 0 1 335.792 25.146 A 11.944 11.944 0 0 1 339.775 32.315 A 17.673 17.673 0 0 1 340.04 35.449 L 340.04 61.133 A 17.372 17.372 0 0 0 340.119 62.858 Q 340.292 64.582 340.846 65.534 A 2.283 2.283 0 0 0 341.945 66.553 A 6.979 6.979 0 0 0 342.879 66.864 A 8.102 8.102 0 0 0 343.214 66.943 A 11.181 11.181 0 0 1 344.392 67.319 Q 344.971 67.543 345.438 67.813 A 5.123 5.123 0 0 1 346.095 68.262 L 346.095 70.85 L 327.199 70.85 L 327.199 67.529 A 2.08 2.08 0 0 1 327.573 66.349 A 3.126 3.126 0 0 1 328.029 65.82 Q 328.821 65.075 329.213 64.529 A 4.152 4.152 0 0 0 329.249 64.478 A 1.882 1.882 0 0 0 329.495 63.961 Q 329.64 63.496 329.64 62.842 L 329.64 34.961 A 12.831 12.831 0 0 0 329.298 31.852 Q 328.287 27.819 324.296 27.041 A 10.872 10.872 0 0 0 322.218 26.855 A 10.087 10.087 0 0 0 316.248 28.832 A 13.818 13.818 0 0 0 314.796 30.029 Z M 123.878 22.656 L 140.48 22.363 L 140.48 63.135 A 4.087 4.087 0 0 0 140.717 64.563 Q 141.168 65.782 142.482 66.455 A 13.658 13.658 0 0 0 144.086 67.168 A 15.441 15.441 0 0 0 144.484 67.31 Q 145.558 67.676 146.583 68.262 L 146.583 70.85 L 123.878 70.85 L 123.878 68.262 A 11.783 11.783 0 0 1 126.002 67.31 A 14.182 14.182 0 0 0 127.432 66.748 A 12.234 12.234 0 0 0 128.029 66.455 Q 129.869 65.535 130.058 63.593 A 4.728 4.728 0 0 0 130.08 63.135 L 130.08 30.469 A 5.293 5.293 0 0 0 129.916 29.107 A 3.308 3.308 0 0 0 128.126 26.904 Q 127.248 26.465 126.124 26.196 A 9.468 9.468 0 0 1 124.37 25.583 A 10.988 10.988 0 0 1 123.878 25.342 L 123.878 22.656 Z M 212.941 22.656 L 229.542 22.363 L 229.542 63.135 A 4.087 4.087 0 0 0 229.779 64.563 Q 230.231 65.782 231.544 66.455 A 13.658 13.658 0 0 0 233.149 67.168 A 15.441 15.441 0 0 0 233.546 67.31 Q 234.621 67.676 235.646 68.262 L 235.646 70.85 L 212.941 70.85 L 212.941 68.262 A 11.783 11.783 0 0 1 215.065 67.31 A 14.182 14.182 0 0 0 216.495 66.748 A 12.234 12.234 0 0 0 217.091 66.455 Q 218.931 65.535 219.12 63.593 A 4.728 4.728 0 0 0 219.142 63.135 L 219.142 30.469 A 5.293 5.293 0 0 0 218.979 29.107 A 3.308 3.308 0 0 0 217.189 26.904 Q 216.31 26.465 215.187 26.196 A 9.468 9.468 0 0 1 213.432 25.583 A 10.988 10.988 0 0 1 212.941 25.342 L 212.941 22.656 Z M 170.265 22.656 L 170.265 60.938 A 16.61 16.61 0 0 0 170.352 62.711 Q 170.546 64.505 171.171 65.49 A 2.528 2.528 0 0 0 172.218 66.455 A 24.442 24.442 0 0 0 172.989 66.76 A 29.851 29.851 0 0 0 173.488 66.943 Q 175.49 67.578 176.417 68.262 L 176.417 70.85 L 153.664 70.85 L 153.664 68.262 Q 154.488 67.621 155.719 67.195 A 10.356 10.356 0 0 1 155.885 67.139 A 76.775 76.775 0 0 0 156.511 66.931 Q 157.337 66.653 157.792 66.474 A 10.145 10.145 0 0 0 157.838 66.455 A 2.157 2.157 0 0 0 158.589 65.943 A 2.879 2.879 0 0 0 158.888 65.576 A 3.567 3.567 0 0 0 159.357 64.646 Q 159.816 63.335 159.816 61.035 L 159.816 32.861 A 18.817 18.817 0 0 0 159.737 31.065 Q 159.441 27.992 158.027 27.298 A 1.889 1.889 0 0 0 157.912 27.246 A 10.958 10.958 0 0 0 157.06 26.933 A 12.993 12.993 0 0 0 156.642 26.807 Q 154.494 26.318 153.566 25.635 L 153.566 22.656 L 170.265 22.656 Z M 310.744 22.656 L 310.744 60.938 A 16.61 16.61 0 0 0 310.831 62.711 Q 311.024 64.505 311.649 65.49 A 2.528 2.528 0 0 0 312.697 66.455 A 24.442 24.442 0 0 0 313.467 66.76 A 29.851 29.851 0 0 0 313.966 66.943 Q 315.968 67.578 316.896 68.262 L 316.896 70.85 L 294.142 70.85 L 294.142 68.262 Q 294.966 67.621 296.198 67.195 A 10.356 10.356 0 0 1 296.364 67.139 A 76.775 76.775 0 0 0 296.989 66.931 Q 297.816 66.653 298.27 66.474 A 10.145 10.145 0 0 0 298.317 66.455 A 2.157 2.157 0 0 0 299.068 65.943 A 2.879 2.879 0 0 0 299.367 65.576 A 3.567 3.567 0 0 0 299.836 64.646 Q 300.294 63.335 300.294 61.035 L 300.294 32.861 A 18.817 18.817 0 0 0 300.216 31.065 Q 299.919 27.992 298.505 27.298 A 1.889 1.889 0 0 0 298.39 27.246 A 10.958 10.958 0 0 0 297.538 26.933 A 12.993 12.993 0 0 0 297.121 26.807 Q 294.972 26.318 294.044 25.635 L 294.044 22.656 L 310.744 22.656 Z M 266.896 72.119 L 266.896 68.311 A 7.829 7.829 0 0 0 272.411 64.221 Q 275.531 58.941 275.539 47.032 A 91.135 91.135 0 0 0 275.539 46.973 Q 275.539 31.841 270.864 27.452 A 7.185 7.185 0 0 0 270.46 27.1 A 7.881 7.881 0 0 0 266.896 25.488 L 266.896 21.68 A 19.821 19.821 0 0 1 280.741 28.637 A 24.015 24.015 0 0 1 280.763 28.662 A 24.591 24.591 0 0 1 286.315 40.359 A 34.781 34.781 0 0 1 286.915 46.973 A 33.723 33.723 0 0 1 286.028 54.918 A 23.924 23.924 0 0 1 280.861 65.137 A 19.91 19.91 0 0 1 266.929 72.117 A 23.768 23.768 0 0 1 266.896 72.119 Z M 262.843 68.262 L 262.843 72.07 A 20.052 20.052 0 0 1 249.123 64.99 A 24.327 24.327 0 0 1 243.718 53.55 A 34.368 34.368 0 0 1 243.117 46.973 A 33.688 33.688 0 0 1 244.015 38.983 A 23.977 23.977 0 0 1 249.123 28.857 A 20.112 20.112 0 0 1 262.843 21.729 L 262.843 25.537 A 7.897 7.897 0 0 0 257.53 29.248 A 12.472 12.472 0 0 0 256.544 31.152 A 22.603 22.603 0 0 0 255.423 34.909 Q 254.396 39.68 254.396 46.973 A 77.92 77.92 0 0 0 254.625 53.2 Q 255.443 63.348 259.181 66.553 Q 260.792 67.871 262.843 68.262 Z M 128.571 5.098 A 7.086 7.086 0 0 0 128.273 7.202 A 7.919 7.919 0 0 0 128.326 8.135 A 5.691 5.691 0 0 0 130.08 11.719 A 6.006 6.006 0 0 0 132.595 13.146 A 7.793 7.793 0 0 0 134.743 13.428 A 8.505 8.505 0 0 0 135.947 13.345 A 6.168 6.168 0 0 0 139.406 11.719 A 5.75 5.75 0 0 0 140.887 9.486 A 6.576 6.576 0 0 0 141.261 7.227 Q 141.261 4.443 139.406 2.686 A 6.024 6.024 0 0 0 139.152 2.459 A 6.379 6.379 0 0 0 137.331 1.392 A 4.382 4.382 0 0 0 137.268 1.368 Q 136.461 1.069 135.247 0.973 A 15.752 15.752 0 0 0 134.01 0.928 A 5.079 5.079 0 0 0 131.524 1.58 A 6.923 6.923 0 0 0 130.08 2.661 A 5.637 5.637 0 0 0 128.571 5.098 Z M 217.634 5.098 A 7.086 7.086 0 0 0 217.335 7.202 A 7.919 7.919 0 0 0 217.389 8.135 A 5.691 5.691 0 0 0 219.142 11.719 A 6.006 6.006 0 0 0 221.658 13.146 A 7.793 7.793 0 0 0 223.805 13.428 A 8.505 8.505 0 0 0 225.01 13.345 A 6.168 6.168 0 0 0 228.468 11.719 A 5.75 5.75 0 0 0 229.949 9.486 A 6.576 6.576 0 0 0 230.324 7.227 Q 230.324 4.443 228.468 2.686 A 6.024 6.024 0 0 0 228.215 2.459 A 6.379 6.379 0 0 0 226.393 1.392 A 4.382 4.382 0 0 0 226.331 1.368 Q 225.523 1.069 224.31 0.973 A 15.752 15.752 0 0 0 223.073 0.928 A 5.079 5.079 0 0 0 220.587 1.58 A 6.923 6.923 0 0 0 219.142 2.661 A 5.637 5.637 0 0 0 217.634 5.098 Z" vector-effect="non-scaling-stroke"/></g></svg>